<svg xmlns="http://www.w3.org/2000/svg" viewBox="0 0 480 620" role="img" aria-label="back-facing chibi female samurai cold style">
  <defs>
    <linearGradient id="coldCloak" x1="0" y1="0" x2="0" y2="1">
      <stop offset="0" stop-color="#313a4f"/>
      <stop offset="0.45" stop-color="#151d2f"/>
      <stop offset="1" stop-color="#070c16"/>
    </linearGradient>
    <linearGradient id="coldHair" x1="0" y1="0" x2="0" y2="1">
      <stop offset="0" stop-color="#2c3343"/>
      <stop offset="1" stop-color="#090d15"/>
    </linearGradient>
    <linearGradient id="coldBlade" x1="0" y1="0" x2="1" y2="1">
      <stop offset="0" stop-color="#f8fbff"/>
      <stop offset="0.52" stop-color="#dce6f3"/>
      <stop offset="1" stop-color="#87a0be"/>
    </linearGradient>
    <linearGradient id="coldBelt" x1="0" y1="0" x2="1" y2="0">
      <stop offset="0" stop-color="#6f82a3"/>
      <stop offset="1" stop-color="#2f3c57"/>
    </linearGradient>
  </defs>

  <ellipse cx="174" cy="576" rx="136" ry="25" fill="#07101f" opacity="0.72"/>
  <ellipse cx="176" cy="579" rx="102" ry="13" fill="#2a6f9a" opacity="0.21"/>

  <g transform="translate(266 224) rotate(-36)">
    <rect x="-2.6" y="-8" width="6" height="260" rx="3" fill="url(#coldBlade)" opacity="0.93"/>
    <rect x="-5" y="223" width="10" height="42" rx="3" fill="#182131"/>
    <rect x="-9" y="214" width="18" height="6" rx="2" fill="#7285a6"/>
  </g>

  <g transform="translate(64 46)">
    <path d="M121 264 C96 294, 83 348, 88 412 C93 479, 112 532, 147 558 C177 579, 234 577, 268 552 C305 525, 327 472, 333 408 C339 345, 327 287, 300 258 C266 221, 151 223, 121 264 Z"
      fill="url(#coldCloak)" stroke="#4d5c79" stroke-width="2.2"/>

    <path d="M115 206 C90 226, 85 255, 102 286 C125 327, 254 330, 281 289 C301 257, 296 225, 270 206 C239 182, 145 181, 115 206 Z"
      fill="#202b3f" stroke="#5b6b8a" stroke-width="1.8"/>

    <path d="M160 223 L190 200 L219 223 L219 260 L160 260 Z" fill="#1a2437"/>
    <path d="M190 258 L172 278 L190 298 L208 278 Z" fill="#2f415f"/>

    <ellipse cx="190" cy="133" rx="84" ry="75" fill="#f0dac9"/>

    <path d="M104 122 C103 73, 139 44, 190 43 C241 44, 278 75, 277 124 C276 173, 249 200, 224 217 C206 228, 174 228, 156 217 C129 200, 105 171, 104 122 Z"
      fill="url(#coldHair)"/>

    <path d="M127 196 L144 174 L190 160 L237 175 L253 198 L239 212 L190 194 L141 211 Z" fill="#111826"/>

    <path d="M232 166 C287 190, 332 246, 337 311 C341 370, 310 436, 265 452 C240 461, 220 451, 209 431 C198 411, 205 386, 226 372 C250 355, 282 354, 294 330 C303 311, 295 283, 271 255 C255 236, 240 212, 232 166 Z"
      fill="#0f1624"/>

    <path d="M255 242 C285 271, 301 315, 295 352 C290 384, 270 410, 246 420 C236 424, 230 418, 235 408 C244 392, 257 378, 261 354 C266 323, 257 283, 238 254 Z"
      fill="#1d2940" opacity="0.85"/>

    <rect x="225" y="161" width="25" height="10" rx="2" fill="#8ea6cb"/>

    <path d="M114 342 C146 356, 233 356, 268 341 L273 364 C234 382, 146 383, 108 365 Z" fill="url(#coldBelt)"/>

    <path d="M103 286 C75 315, 67 352, 82 376 C95 397, 125 396, 140 377 C157 355, 156 320, 128 287 Z" fill="#1a2437"/>
    <path d="M277 287 C306 316, 314 352, 299 376 C286 398, 256 397, 240 377 C223 355, 225 320, 252 288 Z" fill="#1a2437"/>

    <path d="M124 523 L137 487 L152 531 L172 485 L188 533 L209 488 L225 534 L247 491 L261 535 L280 499 L292 538 L305 510 L317 552 L296 567 L269 560 L245 571 L221 559 L190 572 L166 557 L142 566 Z"
      fill="#0b111d" stroke="#3d4c68" stroke-width="2"/>

    <path d="M132 506 L147 476 L165 507 L186 470 L205 509 L228 473 L247 510 L271 483 L287 516" fill="none" stroke="#65789a" stroke-width="1.4" opacity="0.55"/>
  </g>
</svg>
